<svg xmlns="http://www.w3.org/2000/svg" xml:space="preserve" viewBox="0 0 64 64"><g fill="#c0292a"><path d="m15.44 36.73 2.41-.65c.58-.15 1.18.2 1.34.77l22.77 84.99c.16.58-.19 1.18-.77 1.33l-2.41.65a1.08 1.08 0 0 1-1.34-.77L14.67 38.06c-.15-.58.19-1.17.77-1.33z"/><path d="m49.94 55.52-1.12 3.33c.6 1.45 1.1 2.93 1.52 4.47 3.12 11.67-7.72 24.6-16.25 33.53l-1.69.45 7.05 26.28 1.68-.45C35.4 101.79 60.58 83.44 54.86 62.1a43.62 43.62 0 0 0-2.2-6.2zM27.06 14.97a26.78 26.78 0 0 0-4.6 3.45l-.16.98c-1.23 7.63-4.5 10.5-7.57 13.57l-.4.41a13.22 13.22 0 0 0 .35 4.67c1.5 5.57 6.92 8.17 13.86 6.32C39.58 41.4 48.8 28.35 46.3 18.99a9.13 9.13 0 0 0-2.6-4.41l-.57.12c-6.7 1.4-10.22 1.9-15.08.54z"/><path d="M36.7 0c-1.05 5.1-3.05 9.92-7.12 13.93 3.76.84 6.98.56 12.42-.56C40.24 7.42 38.88 3.53 36.7 0zM4.1 20.07c2.65 4.68 5.5 8.4 10.02 11.34 2.69-2.66 5.03-5.32 6.27-11.04-6.52 2.2-11.6 1.2-16.3-.3zm37.05 21 4.18 23.39 3.59-10.59 10.99 1.56z"/></g></svg>
