<svg xmlns="http://www.w3.org/2000/svg" viewBox="0 0 154.66 65.76"><path d="M24.48 35.57q-.82 2.54-.82 4.13 0 1.53.24 2.59 5.48-3.31 7.68-4.51-3.02-1.68-7.1-2.21zm8.02 2.78-8.16 5.23q1.96 4.23 8.97 4.23 1.4 0 3.17-.34.34-1.15.34-2.06 0-4.23-4.32-7.06zm13.92-.05q0-1.58-1.1-2.54t-3.27-.96q-3.55 0-8.69 3.02 5.14 3.27 5.14 8.02 0 .62-.15 1.15 3.65-1.2 5.86-3.74t2.2-4.95zm-27.8-18.04q4.95 0 9.46-1.73 4.56-1.73 7.06-4.03 2.54-2.36 2.54-4.32 0-2.88-5.71-2.88-5.67 0-10.13 3.88-4.46 3.9-5.57 8.98 1.44.1 2.35.1zm.92 14.97q-8.7 0-13.4 2.69t-4.7 6q0 1.97 1.78 3.26 1.82 1.3 5.04 1.3 5.13 0 13.82-5.14-.72-1.58-.72-3.7 0-2.15.58-4.31-1.54-.1-2.4-.1zm8.16-3.45q5.28 0 10.84-1.92t9.56-4.61q4.03-2.74 6.57-5.67 2.6-2.92 2.6-4.99 0-2.73-4.66-2.73t-10.08 3.02q-5.38 2.98-9.65 7.49-4.22 4.46-6.77 9.36.53.05 1.59.05zM20.69 0l.14.72q-5.37.91-9.07 4.7t-3.7 7.78q0 2.54 1.78 4.42 1.82 1.82 5.52 2.4 1.25-5.43 6-9.56 4.8-4.12 11.14-4.12 2.97 0 4.46 1 1.54.96 1.54 2.6 0 3.6-5.9 7.24-5.86 3.6-14.36 3.6-1.44 0-2.11-.04-.15 1-.15 1.96 0 3.17 1.83 5.52 1.87 2.3 5.66 3.12 1.78-3.74 4.8-7.3t6.87-6.42q3.84-2.93 8.59-4.7 4.8-1.78 9.74-1.78 5 0 5 3.21 0 2.26-2.7 5.38-2.63 3.07-6.86 5.95-4.17 2.88-10.08 4.9-5.9 1.96-11.66 1.96-.96 0-1.44-.04-.58 1.24-1.01 2.44 4.56.63 7.73 2.4 6.19-3.21 10.41-3.21 2.36 0 3.56 1.1 1.24 1.06 1.24 2.83 0 2.7-2.59 5.57-2.54 2.83-6.86 4.08-1.1 3.6-5.47 6.29-4.37 2.74-10.32 2.74-2.45 0-5.19-.58l.48-.43q1.83.33 3.84.33 5.23 0 9.27-2.3 4.03-2.26 5.42-5.62-2.02.34-3.6.34-7.25 0-9.89-3.98-8.06 4.6-14.78 4.6-3.65 0-5.81-1.58Q0 45.98 0 43.72q0-3.54 5.09-6.33 5.13-2.78 14.83-2.78.77 0 2.2.1.54-1.54.97-2.55-4.08-.86-6.1-3.36-1.97-2.5-1.97-5.9 0-1.25.2-2.26-4.42-.53-6.63-2.5-2.16-2.01-2.16-4.8 0-4.12 4.03-8.1Q14.54 1.2 20.7 0zM49 46.9q1.82 0 4.85-1.83 3.07-1.87 5.08-3.6Q61 39.74 61 39.46t-.72-.48q-.67-.2-1.87-.2t-3.17.96q-1.97.92-3.41 2.21t-2.4 2.55-.96 1.82.53.58zm12.86-8.07q.96-.77 1.06-.77 1.3.15 1.34.24.05.05.05.15t-.38.62q-.39.48-2.26 2.35-4.66 4.56-4.66 5.52 0 .39.34.39 2.3 0 8.64-4.37l.1.72q-6.39 4.18-9.03 4.18-1.3 0-1.3-1.2 0-1.25 1.5-3.22-5.67 4.18-8.84 4.22-1.15 0-1.15-1.39 0-2.5 3.17-5.33 3.21-2.83 8.45-2.83 1.72 0 2.97.72zm12.39-.67q1 0 1 1.1 0 1.06-1.53 3.12 5.47-3.79 8.78-3.79 1.3 0 1.3 1.1T82.85 42q-.96 1.15-2.11 2.02-3.08 2.2-3.08 2.78 0 .34.53.34.58 0 1.87-.58t2.3-1.15l2.4-1.49 1.54-.96.1.72Q79.92 48 77.33 48q-1.25 0-1.25-1.2 0-.82 1-1.92 1.06-1.15 2.26-2.11 3.32-2.5 3.32-3.31 0-.24-.53-.24-1.78 0-5.28 1.92t-7.78 6.24q-.29.28-1.1.28-.77 0-.77-.43 0-.14 3.31-3.55t3.31-4.42q0-.24-.33-.24-.29 0-1.3.63-.96.62-3.02 2.01-2.02 1.35-3.46 2.26l-.14-.67q.72-.48 1.97-1.35t2.06-1.39q.82-.57 1.78-1.2 1.87-1.15 2.88-1.15zm33.88-14.69q0 .2-.52.72l-1.92 1.78-3.27 3.02-3.21 2.98h8.01q.15 0 .15.19 0 .58-.44.58H98.4Q86.02 44.44 86.02 46.6q0 .53.67.53 1.15 0 6.72-3.5.96-.58 1.15-.68l.1.72Q88.13 48 85.39 48q-1.44 0-1.44-1.06 0-1.48 2.26-4.03 2.97-3.55 9.93-10.13H87.9q-.67 0-.67-.38 0-.43.38-.43h9.36l9.6-8.83q.24-.2.91-.15t.67.48zM99.36 38.3q.24-.19 1.3-.1.52.1.52.25 0 .1-.24.38t-2.3 2.3q-4.27 4.18-4.27 5.24 0 .24.29.24 1.63 0 11.85-6.91l1.3-1.06q.24-.2.91-.14t.67.48q0 .19-.14.33-6.72 6.05-6.72 7.3 0 .53.77.53t2.06-.58 2.3-1.15l2.4-1.49q1.44-.91 1.54-.96l.1.72q-2.21 1.44-5.04 2.88T102.34 48q-1.44 0-1.44-1.2 0-1.68 2.59-4.37-7.54 4.9-9.31 4.9-1.06 0-1.06-1.25 0-2.64 6.24-7.78zm20.02-1.15q.19-.29.43-.29.29 0 .29.3t-.3.57-.42 1.77q-.1 1.44-.72 3.56-.63 2.06-2.16 3.74 0 .1.19.1.33 0 2.45-1.16l.67-.33q1.82-1.01 3.89-2.45l.1.72q-7.5 4.85-11.48 4.85-1.58 0-2.3-.67-.77-.68-.77-1.5t.38-1.29q.39-.53.96-.53.72 0 .72.77 0 .48-.77.87-.24.14-.24.48t.58.76q.53.48 1.15.48 2.11 0 3.6-2.64 1.54-2.68 1.97-5.32v-.15q-4.66 3.17-6.29 4.13l-.14-.67q7.82-5.04 8.2-6.1zm12.1 0q.18-.29.42-.29.3 0 .3.3t-.3.57-.43 1.77q-.1 1.44-.72 3.56-.62 2.06-2.16 3.74 0 .1.2.1.33 0 2.44-1.16l.67-.33q1.83-1.01 3.9-2.45l.09.72q-7.49 4.85-11.47 4.85-1.59 0-2.3-.67-.78-.68-.78-1.5t.39-1.29q.38-.53.96-.53.72 0 .72.77 0 .48-.77.87-.24.14-.24.48t.58.76q.52.48 1.15.48 2.11 0 3.6-2.64 1.53-2.68 1.97-5.32v-.15q-4.66 3.17-6.3 4.13l-.14-.67q7.83-5.04 8.21-6.1zm-6.63 22.95q-1.3 1-1.87 1.92-.58.96-.58 2.01t1.06 1.06q2.59 0 15.21-12.87-8.5 4.08-10.51 5.48-2.06 1.39-3.31 2.4zm-1.73 5.66q-1.4 0-1.4-1.58t1.45-3.27q1.44-1.63 4.27-3.36 4.46-2.69 11.95-6.33l.53-.24q.82-.82 2.6-2.74 1.82-1.92 3.16-3.26-4.32 2.83-6 2.83T138 46.6q0-1.63 4.32-5.14 1.4-1.15 1.4-1.49 0-.38-.4-.38-.8 0-2.73 1.15l-2.35 1.44-1.44.91-1.3.82-.14-.67q6.58-4.32 8.45-4.32 1.25 0 1.25 1.39 0 1.49-4.32 4.94-1.44 1.16-1.44 1.54 0 .24.62.24 1.44 0 4.42-1.87 2.97-1.92 4.99-3.8 2.93-2.73 3.17-2.73.28 0 .81.14.58.15.58.34 0 .14-.67.77-.68.57-9.12 9.02 4.7-2.4 7.34-4.03 2.69-1.63 3.12-1.92l.1.72q-2.16 1.25-3.08 1.87-3.36 2.07-8.83 4.7-7.1 7.11-12.1 11.29-5.03 4.22-7.53 4.22z" aria-label="Cantussy"/></svg>
