<?xml version="1.0" encoding="UTF-8" standalone="no"?>
<svg
   xml:space="preserve"
   viewBox="0 0 64 64"
   version="1.1"
   id="svg3"
   sodipodi:docname="nav-logo.svg"
   inkscape:version="1.4.2 (ebf0e940d0, 2025-05-08)"
   inkscape:export-filename="../../public/favicon.png"
   inkscape:export-xdpi="96"
   inkscape:export-ydpi="96"
   xmlns:inkscape="http://www.inkscape.org/namespaces/inkscape"
   xmlns:sodipodi="http://sodipodi.sourceforge.net/DTD/sodipodi-0.dtd"
   xmlns="http://www.w3.org/2000/svg"
   xmlns:svg="http://www.w3.org/2000/svg"><defs
     id="defs3" /><sodipodi:namedview
     id="namedview3"
     pagecolor="#ffffff"
     bordercolor="#000000"
     borderopacity="0.25"
     inkscape:showpageshadow="2"
     inkscape:pageopacity="0.0"
     inkscape:pagecheckerboard="0"
     inkscape:deskcolor="#d1d1d1"
     showgrid="false"
     inkscape:zoom="1.9897736"
     inkscape:cx="9.8001098"
     inkscape:cy="42.718427"
     inkscape:window-width="1258"
     inkscape:window-height="670"
     inkscape:window-x="0"
     inkscape:window-y="0"
     inkscape:window-maximized="1"
     inkscape:current-layer="svg3" /><path
     id="path1"
     style="fill:#c0292a"
     d="M 18.068359 36.046875 C 17.996133 36.050547 17.922109 36.061328 17.849609 36.080078 L 15.439453 36.730469 C 14.859453 36.890469 14.519922 37.480547 14.669922 38.060547 L 21.619141 64 L 26.464844 64 L 19.189453 36.849609 C 19.049453 36.350859 18.573945 36.021172 18.068359 36.046875 z " /><path
     id="path2"
     style="fill:#c0292a"
     d="M 43.699219 14.580078 L 43.130859 14.699219 C 36.430859 16.099219 32.910781 16.600234 28.050781 15.240234 L 27.060547 14.970703 A 26.78 26.78 0 0 0 22.460938 18.419922 L 22.300781 19.400391 C 21.070781 27.030391 17.800469 29.900703 14.730469 32.970703 L 14.330078 33.380859 A 13.22 13.22 0 0 0 14.679688 38.050781 C 16.179688 43.620781 21.599062 46.219141 28.539062 44.369141 C 39.579062 41.399141 48.800781 28.350234 46.300781 18.990234 A 9.13 9.13 0 0 0 43.699219 14.580078 z M 49.939453 55.519531 L 48.820312 58.849609 C 49.420313 60.299609 49.919844 61.780313 50.339844 63.320312 C 50.40032 63.546519 50.455754 63.772885 50.505859 64 L 55.291016 64 C 55.173804 63.369216 55.029832 62.735545 54.859375 62.099609 A 43.62 43.62 0 0 0 52.660156 55.900391 L 49.939453 55.519531 z " /><path
     d="M 36.7,0 C 35.65,5.1 33.65,9.92 29.58,13.93 33.34,14.77 36.56,14.49 42,13.37 40.24,7.42 38.88,3.53 36.7,0 Z M 4.1,20.07 c 2.65,4.68 5.5,8.4 10.02,11.34 2.69,-2.66 5.03,-5.32 6.27,-11.04 -6.52,2.2 -11.6,1.2 -16.3,-0.3 z m 37.05,21 4.18,23.39 3.59,-10.59 10.99,1.56 z"
     id="path3"
     style="fill:#c0292a" /></svg>
